<?xml version="1.0" encoding="utf-8"?>
<!-- Generator: Adobe Illustrator 22.1.0, SVG Export Plug-In . SVG Version: 6.00 Build 0)  -->
<svg version="1.1" id="Laag_1" xmlns="http://www.w3.org/2000/svg" xmlns:xlink="http://www.w3.org/1999/xlink" x="0px" y="0px"
	 viewBox="0 0 419.5 79.4" style="enable-background:new 0 0 419.5 79.4;" xml:space="preserve">
<style type="text/css">
	.st0{fill:#40AB3B;}
	.st1{fill:#D9D534;}
</style>
<polygon class="st0" points="395,28.2 424.4,18.1 421.4,9.1 395,18.1 368.6,9.1 368.5,9.2 368.5,9.1 342.1,18.1 315.7,9.1 
	315.7,9.1 315.7,9.1 315.7,9.1 315.7,9.1 289.3,18.1 262.9,9.1 262.9,9.2 262.9,9.1 236.5,18.1 210.1,9.1 210.1,9.1 210.1,9.1 
	210.1,9.1 210.1,9.2 183.7,18.2 157.3,9.1 157.3,9.2 157.3,9.1 130.9,18.2 104.5,9.2 104.5,9.1 104.5,9.1 104.5,9.1 104.5,9.2 
	78.1,18.2 51.7,9.1 51.7,9.2 51.7,9.1 25.3,18.2 -1.2,9.1 -4.2,18.1 25.2,28.2 25.2,28.2 25.3,28.2 25.3,28.2 25.3,28.2 51.7,19.2 
	78.1,28.2 78.1,28.2 78.1,28.2 78.1,28.2 78.1,28.2 104.5,19.2 130.9,28.2 130.9,28.2 130.9,28.2 130.9,28.2 130.9,28.2 157.3,19.2 
	183.7,28.2 183.7,28.2 183.7,28.2 183.7,28.2 183.7,28.2 210.1,19.2 236.5,28.2 236.5,28.2 236.5,28.2 236.5,28.2 236.5,28.2 
	262.9,19.2 289.3,28.2 289.3,28.2 289.3,28.2 289.3,28.2 289.3,28.2 315.7,19.2 342.1,28.2 342.1,28.2 342.1,28.2 342.1,28.2 
	342.1,28.2 368.5,19.2 394.9,28.2 395,28.2 395,28.2 395,28.2 "/>
<polygon class="st1" points="395.2,49 424.6,38.9 421.6,29.9 395.2,39 368.7,29.9 368.7,30 368.7,29.9 342.3,39 315.9,30 
	315.9,29.9 315.9,30 315.9,29.9 315.9,30 289.5,39 263.1,29.9 263.1,30 263.1,29.9 236.7,39 210.3,30 210.3,30 210.3,30 210.3,29.9 
	210.3,30 183.9,39 157.5,30 157.5,30 157.5,30 131.1,39 104.7,30 104.7,30 104.7,30 104.7,30 104.7,30 78.3,39 51.9,30 51.9,30 
	51.9,30 25.4,39 -1,30 -4,39 25.4,49 25.4,49 25.4,49 25.5,49 25.5,49 51.9,40 78.3,49 78.3,49 78.3,49 78.3,49 78.3,49 104.7,40 
	131.1,49 131.1,49 131.1,49 131.1,49 131.1,49 157.5,40 183.9,49 183.9,49 183.9,49 183.9,49 183.9,49 210.3,40 236.7,49 236.7,49 
	236.7,49 236.7,49 236.7,49 263.1,40 289.5,49 289.5,49 289.5,49 289.5,49 289.5,49 315.9,40 342.3,49 342.3,49 342.3,49 342.3,49 
	342.3,49 368.7,40 395.1,49 395.1,49 395.2,49 395.2,49 "/>
<polygon points="395.2,69.8 424.6,59.8 421.6,50.8 395.2,59.8 368.7,50.8 368.7,50.8 368.7,50.8 342.3,59.8 315.9,50.8 315.9,50.8 
	315.9,50.8 315.9,50.8 315.9,50.8 289.5,59.8 263.1,50.8 263.1,50.8 263.1,50.8 236.7,59.8 210.3,50.8 210.3,50.8 210.3,50.8 
	210.3,50.8 210.3,50.8 183.9,59.8 157.5,50.8 157.5,50.8 157.5,50.8 131.1,59.8 104.7,50.8 104.7,50.8 104.7,50.8 104.7,50.8 
	104.7,50.8 78.3,59.8 51.9,50.8 51.9,50.8 51.9,50.8 25.4,59.8 -1,50.8 -4,59.8 25.4,69.8 25.4,69.8 25.4,69.8 25.5,69.8 25.5,69.8 
	51.9,60.8 78.3,69.8 78.3,69.8 78.3,69.8 78.3,69.8 78.3,69.8 104.7,60.8 131.1,69.8 131.1,69.8 131.1,69.8 131.1,69.8 131.1,69.8 
	157.5,60.8 183.9,69.8 183.9,69.8 183.9,69.8 183.9,69.8 183.9,69.8 210.3,60.8 236.7,69.8 236.7,69.8 236.7,69.8 236.7,69.8 
	236.7,69.8 263.1,60.8 289.5,69.8 289.5,69.8 289.5,69.8 289.5,69.8 289.5,69.8 315.9,60.8 342.3,69.8 342.3,69.8 342.3,69.8 
	342.3,69.8 342.3,69.8 368.7,60.8 395.1,69.8 395.1,69.8 395.2,69.8 395.2,69.8 "/>
</svg>
